#!OML:ASF F:\VICON\USERDATA\INSTALL\Justin_Nancy\Justin_Nancy.ASF
:FULLY-SPECIFIED
:DEGREES
98
root -5.40454 16.6166 20.0543 -5.14168 -44.3101 9.67196
lowerback 13.5304 0.521423 -2.88405
upperback 1.71598 0.288685 0.919713
thorax -5.79689 0.200248 2.5508
lowerneck -15.9416 -3.90494 -10.5567
upperneck 16.2865 -4.08132 6.54992
head 8.02361 -1.97345 3.44326
rclavicle 1.43125e-014 -9.54166e-015
rhumerus -50.2796 14.2537 -96.3863
rradius 111.584
rwrist -2.04953
rhand -15.4936 29.2454
rfingers 7.12502
rthumb 10.6887 -0.462661
lclavicle 1.43125e-014 -9.54166e-015
lhumerus -53.2762 -10.4968 95.6384
lradius 115.762
lwrist 26.7952
lhand -15.5123 7.38947
lfingers 7.12502
lthumb 10.6706 37.0985
rfemur -11.2263 -0.300408 19.8522
rtibia 86.9411
rfoot 5.1905 -10.8413
rtoes 14.3595
lfemur -28.1642 2.17358 -21.6487
ltibia 45.6701
lfoot -12.2958 -3.49723
ltoes -18.7964
99
root -5.70108 16.5695 20.4861 -6.63055 -44.4873 11.5943
lowerback 13.6525 0.518308 -4.35393
upperback 1.75181 0.0370023 0.527748
thorax -5.81055 0.104587 3.01613
lowerneck -16.2901 -3.94715 -10.9701
upperneck 16.5466 -4.08684 6.94199
head 8.18991 -1.96126 3.64499
rclavicle -2.36554e-014 7.95139e-016
rhumerus -50.5076 12.5547 -96.1771
rradius 109.432
rwrist -1.44217
rhand -15.7094 29.2132
rfingers 7.12502
rthumb 10.4805 -0.505533
lclavicle -2.36554e-014 7.95139e-016
lhumerus -51.3988 -11.3107 95.4614
lradius 116.874
lwrist 27.0951
lhand -9.07827 10.1887
lfingers 7.12502
lthumb 16.8711 39.4759
rfemur -14.4992 -1.53796 17.0615
rtibia 89.9496
rfoot 3.54377 -10.5643
rtoes 15.1404
lfemur -26.5835 1.90405 -23.2731
ltibia 46.8416
lfoot -14.2064 -3.06281
ltoes -17.2271
100
root -6.00312 16.5212 20.9063 -7.24416 -44.6278 13.5052
lowerback 12.8076 0.482115 -5.80855
upperback 1.64889 -0.200344 0.0702839
thorax -5.42834 0.00744955 3.39272
lowerneck -16.5147 -3.8936 -11.0563
upperneck 16.3195 -4.01989 7.26941
head 8.15518 -1.89535 3.7757
rclavicle 2.38542e-015 1.27222e-014
rhumerus -50.3194 10.7307 -96.1372
rradius 107.292
rwrist -1.66122
rhand -16.7389 29.6042
rfingers 7.12502
rthumb 9.48723 -0.162263
lclavicle 2.38542e-015 1.27222e-014
lhumerus -49.2622 -12.1687 95.052
lradius 117.959
lwrist 27.1264
lhand -16.8968 7.06021
lfingers 7.12502
lthumb 9.3349 36.8335
rfemur -18.7632 -2.78914 14.5344
rtibia 92.5345
rfoot 1.70731 -9.86448
rtoes 16.4346
lfemur -25.9392 1.90895 -24.8687
ltibia 47.8491
lfoot -16.2163 -3.3486
ltoes -13.9617
101
root -6.29389 16.4568 21.3044 -8.02504 -44.6275 14.8598
lowerback 12.8565 0.369401 -6.99947
upperback 1.57968 -0.543284 -0.243464
thorax -5.48665 -0.13633 3.79321
lowerneck -16.2831 -3.72776 -11.3074
upperneck 15.7727 -3.85113 7.88527
head 7.93208 -1.76925 4.04291
rclavicle 1.88845e-014 -4.45278e-014
rhumerus -50.2428 8.77009 -95.9705
rradius 105.343
rwrist -1.64289
rhand -16.8061 29.5655
rfingers 7.12502
rthumb 9.42239 -0.203916
lclavicle 1.88845e-014 -4.45278e-014
lhumerus -47.2364 -12.8076 94.63
lradius 119.116
lwrist 27.3258
lhand -16.2947 6.62824
lfingers 7.12502
lthumb 9.91583 36.3747
rfemur -22.4222 -4.15779 12.6786
rtibia 94.4927
rfoot -0.325438 -8.6882
rtoes 17.1372
lfemur -24.5862 2.213 -26.1109
ltibia 48.7381
lfoot -18.0718 -3.05469
ltoes -13.5561
102
root -6.5744 16.411 21.6885 -7.21331 -45.0951 14.2695
lowerback 12.8307 0.191734 -6.75808
upperback 1.43449 -0.739205 -0.134077
thorax -5.60527 -0.227592 3.80713
lowerneck -16.1541 -3.60437 -11.7459
upperneck 15.3798 -3.69247 8.52782
head 7.78328 -1.65768 4.34941
rclavicle -1.64991e-014 -5.56597e-015
rhumerus -51.3739 8.30953 -95.8638
rradius 104.548
rwrist -3.3108
rhand -17.4409 29.487
rfingers 7.12502
rthumb 8.80986 -0.309071
lclavicle -1.64991e-014 -5.56597e-015
lhumerus -45.1227 -12.989 94.1822
lradius 120.266
lwrist 27.9133
lhand -16.5877 6.46453
lfingers 7.12502
lthumb 9.63317 36.2243
rfemur -26.6856 -5.20643 12.9885
rtibia 95.7229
rfoot -1.46962 -7.77283
rtoes 14.7505
lfemur -23.5762 2.8889 -25.7483
ltibia 49.5366
lfoot -19.4912 -3.03059
ltoes -14.0123
103
root -6.84979 16.3854 22.0741 -5.77283 -45.6054 12.3929
lowerback 13.415 0.00518261 -5.63574
upperback 1.15788 -0.840655 0.330467
thorax -6.22141 -0.270113 3.69565
lowerneck -16.5827 -3.39568 -11.6065
upperneck 15.952 -3.33786 8.11585
head 7.99961 -1.51847 4.23648
rclavicle 3.43897e-014 5.56597e-015
rhumerus -52.8237 7.73051 -95.5422
rradius 104.179
rwrist -5.48578
rhand -17.8996 29.3091
rfingers 7.12502
rthumb 8.36723 -0.505151
lclavicle 3.43897e-014 5.56597e-015
lhumerus -43.3663 -12.8752 93.9838
lradius 121.566
lwrist 28.8847
lhand -16.6945 6.42911
lfingers 7.12502
lthumb 9.53008 36.1936
rfemur -30.4021 -6.0156 14.5886
rtibia 96.0108
rfoot -2.32736 -7.08517
rtoes 10.1406
lfemur -22.2699 3.4957 -24.3924
ltibia 50.1415
lfoot -20.6756 -3.29316
ltoes -15.6556
104
root -7.14455 16.3776 22.5038 -5.7348 -45.957 11.81
lowerback 14.2245 -0.0805319 -5.49505
upperback 0.938775 -0.958115 0.747008
thorax -6.89009 -0.298338 4.10192
lowerneck -17.1104 -3.12412 -11.3833
upperneck 16.8235 -2.81975 7.23129
head 8.3137 -1.34996 3.97255
rclavicle 5.36719e-015 -1.43125e-014
rhumerus -54.613 7.47073 -94.8602
rradius 104.165
rwrist -7.3828
rhand -18.4503 29.0264
rfingers 7.12502
rthumb 7.83574 -0.808401
lclavicle 5.36719e-015 -1.43125e-014
lhumerus -42.0047 -12.3694 94.3324
lradius 123.02
lwrist 29.9642
lhand -15.9119 6.65858
lfingers 7.12502
lthumb 10.2851 36.3871
rfemur -32.7148 -6.65078 14.7533
rtibia 95.4611
rfoot -4.60313 -5.71629
rtoes 6.41195
lfemur -19.8827 3.75968 -24.1663
ltibia 50.3341
lfoot -21.6316 -2.77866
ltoes -18.5144
105
root -7.45586 16.374 22.9575 -6.53011 -46.2183 12.5921
lowerback 14.4049 -0.132364 -6.31794
upperback 0.838923 -1.1525 1.02897
thorax -7.05624 -0.353918 4.91812
lowerneck -17.3091 -2.89745 -11.5035
upperneck 17.0813 -2.30812 6.48852
head 8.37946 -1.19336 3.80315
rclavicle -5.66536e-014 1.59028e-014
rhumerus -56.0847 7.53319 -94.0247
rradius 104.352
rwrist -8.87729
rhand -18.3032 28.8233
rfingers 7.12502
rthumb 7.97773 -1.00618
lclavicle -5.66536e-014 1.59028e-014
lhumerus -40.7458 -11.4375 95.0773
lradius 124.706
lwrist 31.0836
lhand -14.8005 7.33328
lfingers 7.12502
lthumb 11.3572 37.0057
rfemur -34.8382 -7.34857 13.7605
rtibia 94.3851
rfoot -6.9799 -3.95688
rtoes 3.58902
lfemur -17.2462 3.88578 -25.0587
ltibia 50.11
lfoot -21.8036 -2.06644
ltoes -21.7965
106
root -7.77356 16.3798 23.4124 -7.04251 -46.2266 13.5261
lowerback 14.083 -0.315742 -7.08396
upperback 0.679038 -1.48468 1.2169
thorax -6.98227 -0.485588 5.61642
lowerneck -17.3365 -2.62656 -11.7633
upperneck 17.2786 -1.74584 5.8907
head 8.39673 -1.01149 3.71172
rclavicle -1.11916e-013 3.97569e-014
rhumerus -57.3029 7.44696 -93.2212
rradius 104.543
rwrist -9.52991
rhand -18.5862 28.8216
rfingers 7.12502
rthumb 7.70452 -1.01804
lclavicle -1.11916e-013 3.97569e-014
lhumerus -39.5851 -10.4673 95.9374
lradius 126.548
lwrist 32.8104
lhand -14.7141 7.51351
lfingers 7.12502
lthumb 11.4405 37.1814
rfemur -37.2806 -8.40889 12.836
rtibia 92.826
rfoot -8.27396 -2.58561
rtoes 0.62135
lfemur -14.95 3.82128 -26.1689
ltibia 49.5727
lfoot -21.3941 -1.7573
ltoes -25.5399
